<mxfile host="app.diagrams.net" modified="2022-07-11T10:58:03.252Z" agent="5.0 (Macintosh; Intel Mac OS X 10_15_7) AppleWebKit/537.36 (KHTML, like Gecko) Chrome/102.0.0.0 Safari/537.36" etag="VqSv8eUGObP7-32KpocB" version="18.1.3" type="github">
  <diagram id="YkF6C_kO4ZG31b6sHu20" name="Page-1">
    <mxGraphModel dx="1249" dy="1921" grid="1" gridSize="10" guides="1" tooltips="1" connect="1" arrows="1" fold="1" page="1" pageScale="1" pageWidth="827" pageHeight="1169" math="0" shadow="0">
      <root>
        <mxCell id="0" />
        <mxCell id="1" parent="0" />
        <mxCell id="geoumopevJTpd1IuXlFz-4" value="" style="group" parent="1" vertex="1" connectable="0">
          <mxGeometry x="70" y="375" width="60" height="60" as="geometry" />
        </mxCell>
        <mxCell id="geoumopevJTpd1IuXlFz-2" value="" style="ellipse;whiteSpace=wrap;html=1;aspect=fixed;" parent="geoumopevJTpd1IuXlFz-4" vertex="1">
          <mxGeometry width="60" height="60" as="geometry" />
        </mxCell>
        <mxCell id="geoumopevJTpd1IuXlFz-3" value="" style="ellipse;whiteSpace=wrap;html=1;aspect=fixed;fillColor=#f8cecc;strokeColor=#b85450;" parent="geoumopevJTpd1IuXlFz-4" vertex="1">
          <mxGeometry x="11.25" y="11.25" width="37.5" height="37.5" as="geometry" />
        </mxCell>
        <mxCell id="geoumopevJTpd1IuXlFz-9" value="" style="edgeStyle=orthogonalEdgeStyle;rounded=0;orthogonalLoop=1;jettySize=auto;html=1;" parent="1" source="geoumopevJTpd1IuXlFz-5" target="geoumopevJTpd1IuXlFz-8" edge="1">
          <mxGeometry relative="1" as="geometry" />
        </mxCell>
        <mxCell id="geoumopevJTpd1IuXlFz-20" value="通过" style="edgeLabel;html=1;align=center;verticalAlign=middle;resizable=0;points=[];" parent="geoumopevJTpd1IuXlFz-9" vertex="1" connectable="0">
          <mxGeometry x="-0.15" y="-1" relative="1" as="geometry">
            <mxPoint y="1" as="offset" />
          </mxGeometry>
        </mxCell>
        <mxCell id="geoumopevJTpd1IuXlFz-5" value="预审核" style="rounded=0;whiteSpace=wrap;html=1;fillColor=#f9f7ed;strokeColor=#36393d;" parent="1" vertex="1">
          <mxGeometry x="250" y="150" width="120" height="60" as="geometry" />
        </mxCell>
        <mxCell id="geoumopevJTpd1IuXlFz-6" value="" style="endArrow=classic;html=1;rounded=0;entryX=0;entryY=0.5;entryDx=0;entryDy=0;exitX=1;exitY=0;exitDx=0;exitDy=0;" parent="1" source="geoumopevJTpd1IuXlFz-2" target="geoumopevJTpd1IuXlFz-5" edge="1">
          <mxGeometry width="50" height="50" relative="1" as="geometry">
            <mxPoint x="170" y="250" as="sourcePoint" />
            <mxPoint x="220" y="200" as="targetPoint" />
          </mxGeometry>
        </mxCell>
        <mxCell id="geoumopevJTpd1IuXlFz-7" value="创建/修改/复制" style="edgeLabel;html=1;align=center;verticalAlign=middle;resizable=0;points=[];" parent="geoumopevJTpd1IuXlFz-6" vertex="1" connectable="0">
          <mxGeometry x="-0.1337" y="-1" relative="1" as="geometry">
            <mxPoint as="offset" />
          </mxGeometry>
        </mxCell>
        <mxCell id="geoumopevJTpd1IuXlFz-11" value="" style="edgeStyle=orthogonalEdgeStyle;rounded=0;orthogonalLoop=1;jettySize=auto;html=1;" parent="1" source="geoumopevJTpd1IuXlFz-8" target="geoumopevJTpd1IuXlFz-10" edge="1">
          <mxGeometry relative="1" as="geometry" />
        </mxCell>
        <mxCell id="geoumopevJTpd1IuXlFz-15" value="通过" style="edgeLabel;html=1;align=center;verticalAlign=middle;resizable=0;points=[];" parent="geoumopevJTpd1IuXlFz-11" vertex="1" connectable="0">
          <mxGeometry x="-0.15" y="3" relative="1" as="geometry">
            <mxPoint y="1" as="offset" />
          </mxGeometry>
        </mxCell>
        <mxCell id="geoumopevJTpd1IuXlFz-8" value="数据审核" style="rounded=0;whiteSpace=wrap;html=1;fillColor=#f9f7ed;strokeColor=#36393d;" parent="1" vertex="1">
          <mxGeometry x="450" y="150" width="120" height="60" as="geometry" />
        </mxCell>
        <mxCell id="geoumopevJTpd1IuXlFz-10" value="平台审核" style="rounded=0;whiteSpace=wrap;html=1;fillColor=#f9f7ed;strokeColor=#36393d;" parent="1" vertex="1">
          <mxGeometry x="650" y="150" width="120" height="60" as="geometry" />
        </mxCell>
        <mxCell id="geoumopevJTpd1IuXlFz-13" value="" style="edgeStyle=orthogonalEdgeStyle;rounded=0;orthogonalLoop=1;jettySize=auto;html=1;entryX=0.5;entryY=0;entryDx=0;entryDy=0;exitX=1;exitY=0.5;exitDx=0;exitDy=0;" parent="1" source="geoumopevJTpd1IuXlFz-10" target="624a1WnqMgpFrngwOP5m-3" edge="1">
          <mxGeometry relative="1" as="geometry">
            <mxPoint x="580" y="190" as="sourcePoint" />
            <mxPoint x="950" y="240" as="targetPoint" />
          </mxGeometry>
        </mxCell>
        <mxCell id="geoumopevJTpd1IuXlFz-14" value="通过" style="edgeLabel;html=1;align=center;verticalAlign=middle;resizable=0;points=[];" parent="geoumopevJTpd1IuXlFz-13" vertex="1" connectable="0">
          <mxGeometry x="-0.4182" relative="1" as="geometry">
            <mxPoint y="1" as="offset" />
          </mxGeometry>
        </mxCell>
        <mxCell id="geoumopevJTpd1IuXlFz-17" value="" style="endArrow=classic;html=1;rounded=0;exitX=0.5;exitY=1;exitDx=0;exitDy=0;entryX=0.25;entryY=0;entryDx=0;entryDy=0;" parent="1" source="geoumopevJTpd1IuXlFz-5" target="geoumopevJTpd1IuXlFz-19" edge="1">
          <mxGeometry width="50" height="50" relative="1" as="geometry">
            <mxPoint x="360" y="290" as="sourcePoint" />
            <mxPoint x="300" y="340" as="targetPoint" />
          </mxGeometry>
        </mxCell>
        <mxCell id="geoumopevJTpd1IuXlFz-28" value="驳回" style="edgeLabel;html=1;align=center;verticalAlign=middle;resizable=0;points=[];" parent="geoumopevJTpd1IuXlFz-17" vertex="1" connectable="0">
          <mxGeometry x="0.1165" relative="1" as="geometry">
            <mxPoint as="offset" />
          </mxGeometry>
        </mxCell>
        <mxCell id="geoumopevJTpd1IuXlFz-19" value="1. 更新tx_extract_audit_record状态+audit_by+reason&lt;br&gt;2. 更新状态(tx_extract_record)为已驳回+updated_by&lt;br&gt;3. 更新tx_extract_feature为已驳回+原因+auditor" style="rounded=0;whiteSpace=wrap;html=1;fillColor=#f5f5f5;fontColor=#333333;strokeColor=#666666;" parent="1" vertex="1">
          <mxGeometry x="215" y="380" width="590" height="50" as="geometry" />
        </mxCell>
        <mxCell id="geoumopevJTpd1IuXlFz-21" value="" style="endArrow=classic;html=1;rounded=0;exitX=0.5;exitY=1;exitDx=0;exitDy=0;" parent="1" source="geoumopevJTpd1IuXlFz-8" target="geoumopevJTpd1IuXlFz-19" edge="1">
          <mxGeometry width="50" height="50" relative="1" as="geometry">
            <mxPoint x="320" y="220" as="sourcePoint" />
            <mxPoint x="316.2500000000002" y="420" as="targetPoint" />
          </mxGeometry>
        </mxCell>
        <mxCell id="geoumopevJTpd1IuXlFz-29" value="驳回" style="edgeLabel;html=1;align=center;verticalAlign=middle;resizable=0;points=[];" parent="geoumopevJTpd1IuXlFz-21" vertex="1" connectable="0">
          <mxGeometry x="0.0588" relative="1" as="geometry">
            <mxPoint as="offset" />
          </mxGeometry>
        </mxCell>
        <mxCell id="geoumopevJTpd1IuXlFz-22" value="" style="endArrow=classic;html=1;rounded=0;exitX=0.5;exitY=1;exitDx=0;exitDy=0;entryX=0.75;entryY=0;entryDx=0;entryDy=0;" parent="1" source="geoumopevJTpd1IuXlFz-10" target="geoumopevJTpd1IuXlFz-19" edge="1">
          <mxGeometry width="50" height="50" relative="1" as="geometry">
            <mxPoint x="330" y="230" as="sourcePoint" />
            <mxPoint x="326.2500000000002" y="430" as="targetPoint" />
          </mxGeometry>
        </mxCell>
        <mxCell id="geoumopevJTpd1IuXlFz-30" value="驳回" style="edgeLabel;html=1;align=center;verticalAlign=middle;resizable=0;points=[];" parent="geoumopevJTpd1IuXlFz-22" vertex="1" connectable="0">
          <mxGeometry x="0.0984" y="-1" relative="1" as="geometry">
            <mxPoint as="offset" />
          </mxGeometry>
        </mxCell>
        <mxCell id="geoumopevJTpd1IuXlFz-23" value="1. 更新预审核记录的audit_by+reason+status&lt;br&gt;2.插入tx_extract_audit_record, type=数据审核&lt;br&gt;3. 更新tx_extract_feature/auditor" style="rounded=0;whiteSpace=wrap;html=1;fillColor=#eeeeee;strokeColor=#36393d;" parent="1" vertex="1">
          <mxGeometry x="315.5" y="-50" width="196" height="110" as="geometry" />
        </mxCell>
        <mxCell id="geoumopevJTpd1IuXlFz-24" value="" style="endArrow=classic;html=1;rounded=0;exitX=1;exitY=0.5;exitDx=0;exitDy=0;entryX=0.5;entryY=1;entryDx=0;entryDy=0;" parent="1" source="geoumopevJTpd1IuXlFz-5" target="geoumopevJTpd1IuXlFz-23" edge="1">
          <mxGeometry width="50" height="50" relative="1" as="geometry">
            <mxPoint x="190" y="150" as="sourcePoint" />
            <mxPoint x="240" y="100" as="targetPoint" />
            <Array as="points">
              <mxPoint x="420" y="180" />
            </Array>
          </mxGeometry>
        </mxCell>
        <mxCell id="geoumopevJTpd1IuXlFz-25" value="1. 更新数据审核audit_by+reason+status&lt;br&gt;2. 插入tx_extract_audit_record, type=平台审核&lt;br&gt;3. 更新tx_extract_feature/auditor" style="rounded=0;whiteSpace=wrap;html=1;fillColor=#eeeeee;strokeColor=#36393d;" parent="1" vertex="1">
          <mxGeometry x="540" y="-50" width="210" height="110" as="geometry" />
        </mxCell>
        <mxCell id="geoumopevJTpd1IuXlFz-26" value="" style="endArrow=classic;html=1;rounded=0;exitX=1;exitY=0.5;exitDx=0;exitDy=0;entryX=0.5;entryY=1;entryDx=0;entryDy=0;" parent="1" source="geoumopevJTpd1IuXlFz-8" target="geoumopevJTpd1IuXlFz-25" edge="1">
          <mxGeometry width="50" height="50" relative="1" as="geometry">
            <mxPoint x="580" y="160" as="sourcePoint" />
            <mxPoint x="631" y="60" as="targetPoint" />
            <Array as="points">
              <mxPoint x="610" y="180" />
            </Array>
          </mxGeometry>
        </mxCell>
        <mxCell id="624a1WnqMgpFrngwOP5m-6" value="" style="edgeStyle=orthogonalEdgeStyle;rounded=0;orthogonalLoop=1;jettySize=auto;html=1;exitX=0.5;exitY=1;exitDx=0;exitDy=0;entryX=0.5;entryY=0;entryDx=0;entryDy=0;" edge="1" parent="1" source="624a1WnqMgpFrngwOP5m-3" target="geoumopevJTpd1IuXlFz-31">
          <mxGeometry relative="1" as="geometry">
            <mxPoint x="940" y="330" as="targetPoint" />
          </mxGeometry>
        </mxCell>
        <mxCell id="624a1WnqMgpFrngwOP5m-7" value="调用" style="edgeLabel;html=1;align=center;verticalAlign=middle;resizable=0;points=[];" vertex="1" connectable="0" parent="624a1WnqMgpFrngwOP5m-6">
          <mxGeometry x="-0.1167" y="-4" relative="1" as="geometry">
            <mxPoint y="1" as="offset" />
          </mxGeometry>
        </mxCell>
        <mxCell id="geoumopevJTpd1IuXlFz-31" value="回调接口" style="whiteSpace=wrap;html=1;fillColor=#f9f7ed;strokeColor=#36393d;" parent="1" vertex="1">
          <mxGeometry x="875" y="365" width="210" height="65" as="geometry" />
        </mxCell>
        <mxCell id="624a1WnqMgpFrngwOP5m-1" value="" style="endArrow=classic;html=1;rounded=0;exitX=1;exitY=0;exitDx=0;exitDy=0;entryX=0.5;entryY=1;entryDx=0;entryDy=0;" edge="1" parent="1" source="geoumopevJTpd1IuXlFz-2" target="624a1WnqMgpFrngwOP5m-2">
          <mxGeometry width="50" height="50" relative="1" as="geometry">
            <mxPoint x="380" y="190" as="sourcePoint" />
            <mxPoint x="200" y="80" as="targetPoint" />
            <Array as="points">
              <mxPoint x="200" y="260" />
            </Array>
          </mxGeometry>
        </mxCell>
        <mxCell id="624a1WnqMgpFrngwOP5m-2" value="1. 调用创建审批接口&lt;br&gt;2. 写入tx_extract_feature,状态为审核中，auditor=leader" style="rounded=0;whiteSpace=wrap;html=1;fillColor=#eeeeee;strokeColor=#36393d;" vertex="1" parent="1">
          <mxGeometry x="100" y="-50" width="196" height="110" as="geometry" />
        </mxCell>
        <mxCell id="624a1WnqMgpFrngwOP5m-3" value="&lt;span style=&quot;color: rgb(51, 51, 51);&quot;&gt;1. 更新tx_extract_audit_record状态+audit_by+reason&lt;/span&gt;&lt;br style=&quot;color: rgb(51, 51, 51);&quot;&gt;&lt;span style=&quot;color: rgb(51, 51, 51);&quot;&gt;2. 更新状态(tx_extract_record)为已上线+updated_by&lt;/span&gt;&lt;br style=&quot;color: rgb(51, 51, 51);&quot;&gt;&lt;span style=&quot;color: rgb(51, 51, 51);&quot;&gt;3. 更新tx_extract_feature为已驳回+原因+auditor&lt;/span&gt;" style="whiteSpace=wrap;html=1;fillColor=#f5f5f5;strokeColor=#666666;fontColor=#333333;" vertex="1" parent="1">
          <mxGeometry x="850" y="210" width="260" height="90" as="geometry" />
        </mxCell>
      </root>
    </mxGraphModel>
  </diagram>
</mxfile>
